<svg width="2258" height="500" viewBox="0 0 2258 500" fill="none" xmlns="http://www.w3.org/2000/svg">
    <g clip-path="url(#clip0_23_22)">
        <path
            d="M449.883 401.911C426.966 401.911 405.004 398.91 383.996 392.908C362.989 386.633 346.074 378.585 333.252 368.763L355.76 318.837C368.036 327.567 382.496 334.797 399.138 340.526C416.053 345.983 433.104 348.711 450.292 348.711C463.387 348.711 473.891 347.483 481.803 345.028C489.987 342.299 495.989 338.616 499.809 333.978C503.628 329.34 505.538 324.02 505.538 318.018C505.538 310.379 502.537 304.377 496.535 300.012C490.533 295.374 482.621 291.691 472.8 288.963C462.978 285.962 452.065 283.234 440.061 280.778C428.33 278.05 416.462 274.776 404.458 270.957C392.727 267.137 381.95 262.227 372.129 256.225C362.307 250.223 354.259 242.311 347.984 232.489C341.982 222.668 338.981 210.118 338.981 194.84C338.981 178.471 343.346 163.602 352.076 150.234C361.08 136.593 374.448 125.816 392.181 117.905C410.187 109.72 432.695 105.628 459.704 105.628C477.71 105.628 495.444 107.81 512.904 112.175C530.365 116.268 545.779 122.542 559.147 131L538.686 181.335C525.318 173.696 511.949 168.104 498.581 164.557C485.213 160.737 472.117 158.828 459.295 158.828C446.472 158.828 435.969 160.328 427.784 163.329C419.6 166.33 413.734 170.286 410.187 175.197C406.641 179.835 404.867 185.291 404.867 191.566C404.867 198.932 407.868 204.934 413.87 209.572C419.872 213.937 427.784 217.484 437.606 220.212C447.427 222.94 458.204 225.669 469.935 228.397C481.939 231.125 493.807 234.263 505.538 237.809C517.542 241.356 528.455 246.13 538.276 252.132C548.098 258.134 556.01 266.046 562.012 275.868C568.287 285.689 571.424 298.103 571.424 313.108C571.424 329.204 566.923 343.936 557.92 357.305C548.916 370.673 535.412 381.449 517.406 389.634C499.672 397.818 477.165 401.911 449.883 401.911ZM638.1 397L558.709 176.834H618.866L684.752 366.308H656.106L724.857 176.834H778.875L845.58 366.308H816.934L884.866 176.834H941.34L861.54 397H799.746L741.226 234.535H760.051L699.485 397H638.1ZM950.557 397V176.834H1014.4V397H950.557ZM982.477 146.141C970.746 146.141 961.197 142.731 953.831 135.911C946.465 129.09 942.782 120.633 942.782 110.538C942.782 100.444 946.465 91.9866 953.831 85.166C961.197 78.3455 970.746 74.9353 982.477 74.9353C994.209 74.9353 1003.76 78.2091 1011.12 84.7568C1018.49 91.0317 1022.17 99.2163 1022.17 109.311C1022.17 119.951 1018.49 128.817 1011.12 135.911C1004.03 142.731 994.482 146.141 982.477 146.141ZM1060.96 397V171.923C1060.96 147.096 1068.33 127.317 1083.06 112.585C1097.79 97.5794 1118.8 90.0768 1146.08 90.0768C1155.36 90.0768 1164.22 91.0317 1172.68 92.9414C1181.41 94.8512 1188.78 97.8522 1194.78 101.945L1178 148.188C1174.45 145.732 1170.5 143.822 1166.13 142.458C1161.77 141.094 1157.13 140.412 1152.22 140.412C1142.94 140.412 1135.71 143.14 1130.53 148.597C1125.62 153.78 1123.16 161.692 1123.16 172.332V192.794L1124.8 220.212V397H1060.96ZM1026.99 230.852V181.745H1179.64V230.852H1026.99ZM1281.01 400.274C1255.09 400.274 1234.9 393.726 1220.45 380.631C1205.99 367.263 1198.76 347.483 1198.76 321.292V128.135H1262.6V320.474C1262.6 329.75 1265.05 336.979 1269.96 342.163C1274.87 347.074 1281.56 349.529 1290.01 349.529C1300.11 349.529 1308.7 346.801 1315.8 341.345L1332.98 386.36C1326.44 390.998 1318.52 394.545 1309.25 397C1300.25 399.183 1290.83 400.274 1281.01 400.274ZM1164.79 230.852V181.745H1317.43V230.852H1164.79ZM1489.95 401.911C1467.85 401.911 1447.26 398.364 1428.16 391.271C1409.33 383.905 1392.96 373.537 1379.05 360.169C1365.14 346.801 1354.22 331.114 1346.31 313.108C1338.67 295.101 1334.85 275.322 1334.85 253.769C1334.85 232.216 1338.67 212.437 1346.31 194.431C1354.22 176.425 1365.14 160.737 1379.05 147.369C1393.24 134.001 1409.74 123.77 1428.57 116.677C1447.39 109.311 1467.99 105.628 1490.36 105.628C1515.19 105.628 1537.56 109.993 1557.48 118.723C1577.66 127.18 1594.58 139.73 1608.22 156.372L1565.66 195.658C1555.84 184.473 1544.93 176.152 1532.92 170.695C1520.92 164.966 1507.82 162.101 1493.64 162.101C1480.27 162.101 1467.99 164.284 1456.8 168.649C1445.62 173.014 1435.93 179.289 1427.75 187.474C1419.56 195.658 1413.15 205.344 1408.52 216.529C1404.15 227.715 1401.97 240.128 1401.97 253.769C1401.97 267.41 1404.15 279.824 1408.52 291.009C1413.15 302.195 1419.56 311.88 1427.75 320.065C1435.93 328.249 1445.62 334.524 1456.8 338.889C1467.99 343.254 1480.27 345.437 1493.64 345.437C1507.82 345.437 1520.92 342.709 1532.92 337.252C1544.93 331.523 1555.84 322.929 1565.66 311.471L1608.22 350.757C1594.58 367.399 1577.66 380.085 1557.48 388.815C1537.56 397.546 1515.05 401.911 1489.95 401.911ZM1632.53 397V110.538H1756.52C1782.17 110.538 1804.27 114.767 1822.82 123.225C1841.37 131.409 1855.7 143.277 1865.79 158.828C1875.88 174.378 1880.93 192.93 1880.93 214.483C1880.93 235.763 1875.88 254.178 1865.79 269.729C1855.7 285.28 1841.37 297.284 1822.82 305.742C1804.27 313.926 1782.17 318.018 1756.52 318.018H1669.36L1698.82 288.145V397H1632.53ZM1698.82 295.511L1669.36 264H1752.84C1773.3 264 1788.58 259.635 1798.68 250.905C1808.77 242.174 1813.82 230.034 1813.82 214.483C1813.82 198.659 1808.77 186.382 1798.68 177.652C1788.58 168.922 1773.3 164.557 1752.84 164.557H1669.36L1698.82 133.046V295.511ZM2050.53 401.911C2028.15 401.911 2007.28 398.228 1987.91 390.862C1968.82 383.495 1952.17 373.128 1937.99 359.76C1924.07 346.392 1913.16 330.705 1905.25 312.698C1897.61 294.692 1893.79 275.049 1893.79 253.769C1893.79 232.489 1897.61 212.846 1905.25 194.84C1913.16 176.834 1924.21 161.147 1938.4 147.778C1952.58 134.41 1969.22 124.043 1988.32 116.677C2007.42 109.311 2028.15 105.628 2050.53 105.628C2073.17 105.628 2093.9 109.311 2112.73 116.677C2131.83 124.043 2148.33 134.41 2162.25 147.778C2176.43 160.874 2187.48 176.425 2195.39 194.431C2203.3 212.437 2207.26 232.216 2207.26 253.769C2207.26 275.049 2203.3 294.829 2195.39 313.108C2187.48 331.114 2176.43 346.801 2162.25 360.169C2148.33 373.265 2131.83 383.495 2112.73 390.862C2093.9 398.228 2073.17 401.911 2050.53 401.911ZM2144.24 462.886C2133.05 462.886 2122.41 461.658 2112.32 459.203C2102.5 456.748 2092.68 452.792 2082.85 447.335C2073.31 441.879 2063.21 434.513 2052.57 425.237C2042.2 415.961 2030.88 404.503 2018.61 390.862L2088.17 373.265C2095.54 383.359 2102.36 391.407 2108.64 397.409C2114.91 403.411 2120.91 407.64 2126.64 410.095C2132.64 412.551 2138.92 413.778 2145.47 413.778C2162.93 413.778 2178.48 406.685 2192.12 392.498L2221.58 427.692C2202.21 451.155 2176.43 462.886 2144.24 462.886ZM2050.53 345.437C2063.35 345.437 2075.08 343.254 2085.72 338.889C2096.63 334.524 2106.18 328.249 2114.37 320.065C2122.55 311.88 2128.82 302.195 2133.19 291.009C2137.83 279.551 2140.15 267.137 2140.15 253.769C2140.15 240.128 2137.83 227.715 2133.19 216.529C2128.82 205.344 2122.55 195.658 2114.37 187.474C2106.18 179.289 2096.63 173.014 2085.72 168.649C2075.08 164.284 2063.35 162.101 2050.53 162.101C2037.7 162.101 2025.84 164.284 2014.92 168.649C2004.01 173.014 1994.46 179.289 1986.28 187.474C1978.36 195.658 1972.09 205.344 1967.45 216.529C1963.09 227.715 1960.9 240.128 1960.9 253.769C1960.9 267.137 1963.09 279.551 1967.45 291.009C1972.09 302.195 1978.36 311.88 1986.28 320.065C1994.46 328.249 2004.01 334.524 2014.92 338.889C2025.84 343.254 2037.7 345.437 2050.53 345.437Z"
            fill="#4B5563" />
        <path
            d="M182.201 118.087C182.752 113.903 181.955 109.652 179.925 105.952C177.895 102.253 174.739 99.2962 170.914 97.5126C166.981 95.6668 162.533 95.2273 158.314 96.2676C154.095 97.3078 150.361 99.7648 147.737 103.228L23.8483 262.184C21.5997 265.08 20.1764 268.53 19.7292 272.169C19.2821 275.807 19.8277 279.499 21.3083 282.853C24.0388 289.092 30.3571 294.617 39.0248 294.617H145.102L134.783 382.913C134.232 387.097 135.029 391.348 137.059 395.048C139.089 398.747 142.245 401.704 146.07 403.487C150.004 405.333 154.452 405.773 158.67 404.732C162.889 403.692 166.623 401.235 169.247 397.772L293.12 238.816C295.369 235.92 296.792 232.47 297.239 228.832C297.686 225.193 297.141 221.501 295.66 218.147C294.176 214.671 291.709 211.706 288.561 209.616C285.413 207.526 281.722 206.402 277.944 206.383H171.867L182.201 118.087Z"
            fill="#FF822D" />
    </g>
    <defs>
        <clipPath id="clip0_23_22">
            <rect width="2258" height="500" fill="white" />
        </clipPath>
    </defs>
</svg>