<svg width="500" height="500" viewBox="0 0 500 500" fill="none" xmlns="http://www.w3.org/2000/svg">
<path d="M270.964 132.878C271.451 129.178 270.746 125.418 268.951 122.146C267.155 118.873 264.363 116.258 260.981 114.68C257.501 113.048 253.567 112.659 249.835 113.579C246.104 114.499 242.801 116.672 240.48 119.735L130.899 260.335C128.91 262.896 127.651 265.948 127.255 269.166C126.86 272.385 127.342 275.65 128.652 278.617C131.067 284.135 136.656 289.022 144.322 289.022H238.149L229.022 367.122C228.535 370.822 229.24 374.582 231.035 377.854C232.831 381.127 235.623 383.742 239.005 385.32C242.485 386.952 246.419 387.341 250.151 386.421C253.882 385.501 257.185 383.328 259.506 380.265L369.073 239.665C371.062 237.104 372.321 234.052 372.717 230.834C373.112 227.615 372.63 224.35 371.32 221.383C370.008 218.309 367.825 215.686 365.041 213.837C362.256 211.989 358.992 210.995 355.65 210.978H261.823L270.964 132.878Z" fill="#FF822D"/>
<path d="M273.687 117.587C274.238 113.403 273.441 109.152 271.411 105.452C269.381 101.753 266.225 98.7962 262.4 97.0126C258.467 95.1668 254.019 94.7273 249.8 95.7676C245.581 96.8078 241.847 99.2648 239.223 102.728L115.334 261.684C113.086 264.58 111.662 268.03 111.215 271.669C110.768 275.307 111.314 278.999 112.794 282.353C115.525 288.592 121.843 294.117 130.511 294.117H236.587L226.269 382.413C225.718 386.597 226.515 390.848 228.545 394.548C230.575 398.247 233.731 401.204 237.556 402.987C241.489 404.833 245.937 405.273 250.156 404.232C254.375 403.192 258.109 400.735 260.733 397.272L384.606 238.316C386.855 235.42 388.278 231.97 388.725 228.332C389.172 224.693 388.627 221.001 387.146 217.647C385.662 214.171 383.195 211.206 380.047 209.116C376.899 207.026 373.208 205.902 369.429 205.883H263.353L273.687 117.587Z" fill="#FF822D"/>
</svg>
